<?xml version="1.0" encoding="UTF-8" standalone="no"?>
<!-- Generator: Adobe Illustrator 26.3.1, SVG Export Plug-In . SVG Version: 6.00 Build 0)  -->

<svg
   version="1.1"
   id="Ebene_1"
   x="0px"
   y="0px"
   viewBox="0 0 2808.4 549.9"
   style="enable-background:new 0 0 2808.4 549.9;"
   xml:space="preserve"
   sodipodi:docname="Joanneum_Racing_Electrics.svg"
   inkscape:version="1.1.1 (3bf5ae0d25, 2021-09-20)"
   xmlns:inkscape="http://www.inkscape.org/namespaces/inkscape"
   xmlns:sodipodi="http://sodipodi.sourceforge.net/DTD/sodipodi-0.dtd"
   xmlns="http://www.w3.org/2000/svg"
   xmlns:svg="http://www.w3.org/2000/svg"><defs
   id="defs63" /><sodipodi:namedview
   id="namedview61"
   pagecolor="#ffffff"
   bordercolor="#666666"
   borderopacity="1.0"
   inkscape:pageshadow="2"
   inkscape:pageopacity="0.0"
   inkscape:pagecheckerboard="0"
   showgrid="false"
   inkscape:zoom="0.40200827"
   inkscape:cx="1402.9562"
   inkscape:cy="274.86996"
   inkscape:window-width="1920"
   inkscape:window-height="1017"
   inkscape:window-x="-8"
   inkscape:window-y="-8"
   inkscape:window-maximized="1"
   inkscape:current-layer="Ebene_1" />
<style
   type="text/css"
   id="style2">
	.st0{display:none;}
	.st1{display:inline;}
	.st2{fill:none;}
	.st3{font-family:'DMSans-Regular';}
	.st4{font-size:215px;}
	.st5{letter-spacing:-9;}
</style>
<g
   id="g54">
	<g
   id="g46">
		<g
   id="g20">
			<path
   d="M747.9,155.7c-14.6,0-26.4-4.1-35.2-12.4c-8.8-8.2-13.2-20-13.2-35.2H727c0.1,7,1.8,12.6,4.9,16.8     c3.1,4.2,8.2,6.2,15.3,6.2c6.6,0,11.4-2,14.4-5.9s4.5-9.1,4.5-15.6V2.6h27.5v107.1c0,14.8-4.1,26.1-12.4,34.1     C773.1,151.7,761.9,155.7,747.9,155.7z"
   id="path4" />
			<path
   d="M879,155.7c-15,0-28.2-3.3-39.5-9.9c-11.3-6.6-20.1-15.7-26.4-27.4c-6.4-11.7-9.6-25.2-9.6-40.5s3.2-28.8,9.6-40.5     c6.4-11.7,15.2-20.8,26.4-27.4C850.8,3.3,863.9,0,879,0c14.9,0,28,3.3,39.4,9.9c11.3,6.6,20.1,15.7,26.4,27.4     c6.3,11.7,9.5,25.2,9.5,40.5s-3.1,28.9-9.5,40.5c-6.3,11.7-15.1,20.8-26.4,27.4C907,152.4,893.9,155.7,879,155.7z M879,130.9     c14.3,0,25.8-4.7,34.3-14.2s12.8-22.4,12.8-38.9s-4.3-29.5-12.8-38.9c-8.5-9.5-20-14.2-34.3-14.2s-25.8,4.7-34.4,14.2     c-8.6,9.5-12.9,22.4-12.9,38.9s4.3,29.5,12.9,38.9C853.2,126.2,864.6,130.9,879,130.9z"
   id="path6" />
			<path
   d="M945.5,153.1l55-150.5h31l55,150.5h-29.2l-12-34.8h-58.7l-12.3,34.8H945.5z M994.1,96.8h43.6l-21.9-62.6L994.1,96.8z"
   id="path8" />
			<path
   d="M1089.7,153.1V2.6h27.5l70.7,106V2.6h27.5v150.5H1188l-70.7-105.8v105.8H1089.7z"
   id="path10" />
			<path
   d="M1232.1,153.1V2.6h27.5l70.7,106V2.6h27.5v150.5h-27.5l-70.7-105.8v105.8H1232.1z"
   id="path12" />
			<path
   d="M1374.5,153.1V2.6h98.3v22.1H1402V66h64.3v21.5H1402v43.4h70.7V153h-98.2V153.1z"
   id="path14" />
			<path
   d="M1540.6,155.7c-11,0-21-2.2-29.9-6.6c-8.9-4.4-15.9-11-21.2-19.9s-7.9-20.1-7.9-33.8V2.6h27.5v93.1     c0,11.8,2.8,20.5,8.5,26.2s13.5,8.6,23.5,8.6c9.9,0,17.7-2.9,23.4-8.6c5.7-5.7,8.6-14.5,8.6-26.2V2.6h27.5v92.9     c0,13.6-2.7,24.9-8.2,33.8s-12.7,15.5-21.8,19.9C1561.7,153.5,1551.6,155.7,1540.6,155.7z"
   id="path16" />
			<path
   d="M1616.4,153.1V2.6h32.7l48,95.5l47.3-95.5h32.7v150.5h-27.5V49.2l-41.9,82.3H1686l-41.9-82.3v103.9H1616.4z"
   id="path18" />
		</g>
		<g
   id="g34">
			<path
   d="M708.5,350.2V199.7h55.3c12,0,22,2,29.8,6.1s13.6,9.6,17.5,16.6c3.9,6.9,5.8,14.7,5.8,23.1c0,9.2-2.4,17.6-7.2,25.2     s-12.3,13.1-22.5,16.6l31.2,63h-31.6l-28-59.3H736v59.3h-27.5V350.2z M736,270.6h26c9.2,0,15.9-2.2,20.2-6.7     c4.3-4.4,6.4-10.3,6.4-17.6c0-7.2-2.1-12.9-6.3-17.2s-11.1-6.5-20.5-6.5H736V270.6z"
   id="path22" />
			<path
   d="M819.2,350.2l55-150.5h31l55,150.5H931l-12-34.8h-58.7L848,350.2H819.2z M867.8,293.9h43.6l-21.9-62.6L867.8,293.9z"
   id="path24" />
			<path
   d="M1025.2,352.8c-15.2,0-28.2-3.3-39.1-9.8c-10.9-6.5-19.3-15.6-25.2-27.3c-5.9-11.7-8.8-25.2-8.8-40.5s2.9-28.9,8.8-40.6     c5.9-11.7,14.3-20.9,25.2-27.5s23.9-9.9,39.1-9.9c18.1,0,32.9,4.5,44.4,13.4c11.5,9,18.7,21.5,21.6,37.7h-30.3     c-1.9-8.2-5.8-14.6-11.9-19.2c-6.1-4.7-14.2-7-24.2-7c-13.9,0-24.8,4.7-32.7,14.2s-11.8,22.4-11.8,38.9s3.9,29.4,11.8,38.8     c7.9,9.4,18.8,14.1,32.7,14.1c10,0,18.1-2.2,24.2-6.6s10.1-10.4,11.9-18.2h30.3c-2.9,15.5-10.1,27.6-21.6,36.3     C1058,348.4,1043.2,352.8,1025.2,352.8z"
   id="path26" />
			<path
   d="M1100.5,350.2V199.7h27.5v150.5H1100.5z"
   id="path28" />
			<path
   d="M1144.6,350.2V199.7h27.5l70.7,106v-106h27.5v150.5h-27.5l-70.7-105.8v105.8H1144.6z"
   id="path30" />
			<path
   d="M1351.4,352.8c-14.2,0-26.6-3.2-37.2-9.7c-10.6-6.4-18.9-15.4-24.7-27c-5.9-11.5-8.8-25-8.8-40.3c0-15.5,3-29.1,9.1-41     c6.1-11.8,14.8-21.1,26-27.7c11.3-6.7,24.6-10,40.1-10c17.6,0,32.3,4.2,43.9,12.7s19.1,20.1,22.6,35h-30.8     c-2.3-7-6.4-12.5-12.5-16.4c-6-3.9-13.8-5.9-23.2-5.9c-15,0-26.6,4.8-34.8,14.3c-8.2,9.5-12.3,22.6-12.3,39.2s4.1,29.5,12.2,38.6     s19.1,13.6,33,13.6c13.6,0,23.9-3.7,30.8-11.1c7-7.4,11.2-17.1,12.6-29.1h-38.1v-20.6h65.8v82.8h-25.3l-2.2-19.8     c-4.9,7.2-11,12.7-18.3,16.6C1372,350.8,1362.7,352.8,1351.4,352.8z"
   id="path32" />
		</g>
		<g
   class="st0"
   id="g44">
			<path
   class="st1"
   d="M774.5,549.9c-14.1,0-26.4-3.3-37-9.8s-18.9-15.6-24.7-27.3c-5.9-11.7-8.8-25.2-8.8-40.5s3-28.9,8.9-40.6     s14.4-20.9,25.4-27.5s23.9-9.9,38.8-9.9c16.9,0,31,4.1,42.2,12.3s18.5,19.4,21.8,33.8h-20.9c-2-9-6.8-16.2-14.3-21.5     s-17.2-8-28.9-8c-11,0-20.6,2.5-28.8,7.4s-14.5,12-19,21.2s-6.8,20.1-6.8,32.9s2.2,23.7,6.6,32.9c4.4,9.2,10.6,16.2,18.5,21.2     c7.9,4.9,17.1,7.4,27.5,7.4c16,0,28.2-4.7,36.3-14.1c8.2-9.4,12.8-22.3,14-38.6H782V467h62v80.4h-16.6l-1.5-24.7     c-5.4,8.7-12.1,15.5-20,20.2C798,547.5,787.6,549.9,774.5,549.9z"
   id="path36" />
			<path
   class="st1"
   d="M859.1,547.3V396.8h48.6c11.7,0,21.3,1.9,28.8,5.8s13,9.2,16.6,15.9c3.6,6.7,5.4,14.2,5.4,22.4     c0,9.5-2.6,18-7.6,25.6c-5.1,7.6-13,13-23.7,16.1l32.9,64.7h-21.3l-30.5-62.1H907h-29.7v62.1H859.1z M877.2,471h29.2     c11.6,0,20.1-2.8,25.4-8.4c5.3-5.6,8-12.8,8-21.5c0-8.9-2.6-15.9-7.9-21.2c-5.2-5.2-13.8-7.8-25.7-7.8h-29V471z"
   id="path38" />
			<path
   class="st1"
   d="M962.6,547.3l55.5-150.5h19.1l55.3,150.5h-19.1l-13.8-38.7h-64.1l-14,38.7H962.6z M1000.8,494h53.3     l-26.7-74.4L1000.8,494z"
   id="path40" />
			<path
   class="st1"
   d="M1094.3,547.3v-14.2l74.2-120.6h-73.1v-15.7h94.2V411l-74.4,120.6h75.3v15.7H1094.3z"
   id="path42" />
		</g>
	</g>
	<g
   id="g52">
		<path
   d="M173.7,149.9c0,0,49-34.7,89.6-31.3c0,0-3.5,32.9-37.9,46.7S173.7,149.9,173.7,149.9z"
   id="path48" />
		<path
   d="M507.3,44.4c-0.1,0-0.1-0.1-0.1-0.1c-5-16.8-13.5-28.7-25.4-35.3c-20.3-11.3-45.5-5.7-69.7,2.1c-1,0.3-4.1,0.6-15.7,0    C262.7,4.7,168.2,73.4,91.7,128.8c-14.4,10.4-44.6,22.1-60.8,28.4c-5.2,2-9.2,3.6-11.1,4.5c-5.9,2.7-15.8,7.2-18.9,17.5    c-3,9.9,0.9,22.3,12.8,41.5c40.4,64.6,71.3,75.1,96.2,76.8c34,2.4,83.2,0.5,116.1-0.3c64-1.6,104.4-1.5,133.4,3.7    c58.4,8.5,66,25.7,105.4,93c12.1,22.2,62.6,115.8,83.5,156l0,0c0.5,0,27.9,0,31,0c0.1,0,0.2-0.1,0.1-0.3    c-25.4-44.3-85.2-158.4-90.9-168.8c-44-75.3-58.5-97.1-125.2-106.8c-30.1-5.4-73.3-5.4-136.4-4c-32.7,0.8-81.6,1.2-115.2,0.4    c-30.2-0.7-56.4-34.7-68.3-52.9l-4-8.3c11.7-14,11.2-25.6,9.9-31.1l15.6-5.6c11.4-4.8,31.5-13.8,42.5-21.7    c73.5-53.2,156.1-113,271.6-113c5.2,0,10.6,0.1,15.9,0.4c5.2,0.3,9.1,0.4,11.7,0.4c5.4,0,9-0.4,12.4-1.3    c11.5-3.7,24.8-7.5,35.7-7.5c5.5,0,9.9,1,13.5,3c5.5,3.1,9.8,9.6,12.7,19.4l2.6,16.1l1.7,12.2l12.1-10.7    c38.6-0.2,165.9,139.2,182.3,169.8c0,0,0-39.2,0-39.4C673,180.7,556.2,48.7,507.3,44.4z"
   id="path50" />
	</g>
</g>
<rect
   x="692.8"
   y="392.6"
   class="st2"
   width="1559.9"
   height="169.1"
   id="rect56" />
<text
   transform="translate(692.7861,547.4159)"
   class="st3 st4 st5"
   id="text58">ELECTRICS</text>
</svg>
