<?xml version="1.0" encoding="UTF-8" standalone="no"?>
<svg
   xmlns:dc="http://purl.org/dc/elements/1.1/"
   xmlns:cc="http://creativecommons.org/ns#"
   xmlns:rdf="http://www.w3.org/1999/02/22-rdf-syntax-ns#"
   xmlns:svg="http://www.w3.org/2000/svg"
   xmlns="http://www.w3.org/2000/svg"
   xmlns:sodipodi="http://sodipodi.sourceforge.net/DTD/sodipodi-0.dtd"
   xmlns:inkscape="http://www.inkscape.org/namespaces/inkscape"
   width="210mm"
   height="297mm"
   viewBox="0 0 210 297"
   version="1.1"
   id="svg1000"
   inkscape:version="1.0.1 (3bc2e813f5, 2020-09-07)"
   sodipodi:docname="new_logos_JR22.svg">
  <defs
     id="defs994">
    <clipPath
       clipPathUnits="userSpaceOnUse"
       id="clipPath851-6-10-8-1-8-1-17-8-7-3-4-3">
      <path
         d="M 0,1080 H 1080 V 0 H 0 Z"
         id="path849-0-3-8-0-1-8-1-1-3-4-3-0" />
    </clipPath>
  </defs>
  <sodipodi:namedview
     id="base"
     pagecolor="#ffffff"
     bordercolor="#666666"
     borderopacity="1.0"
     inkscape:pageopacity="0.0"
     inkscape:pageshadow="2"
     inkscape:zoom="0.35"
     inkscape:cx="400"
     inkscape:cy="560"
     inkscape:document-units="mm"
     inkscape:current-layer="layer1"
     inkscape:document-rotation="0"
     showgrid="false" />
  <metadata
     id="metadata997">
    <rdf:RDF>
      <cc:Work
         rdf:about="">
        <dc:format>image/svg+xml</dc:format>
        <dc:type
           rdf:resource="http://purl.org/dc/dcmitype/StillImage" />
        <dc:title />
      </cc:Work>
    </rdf:RDF>
  </metadata>
  <g
     inkscape:label="Ebene 1"
     inkscape:groupmode="layer"
     id="layer1">
    <g
       id="g1661"
       transform="matrix(0.93121651,0,0,0.93121651,7.8916151,-26.641133)">
      <path
         id="rect2559-8-90-7-4-3"
         style="fill:#000000;fill-opacity:1;stroke-width:1.12724;stroke-linecap:round;paint-order:stroke fill markers"
         d="m 22.181261,148.10502 v 47.95167 h 49.50102 c -1.661015,-2.51671 -3.194912,-5.04703 -4.346669,-7.15286 -4.426916,-8.09396 -5.657747,-11.11649 -7.288251,-12.1181 -2.134055,-1.31085 -11.971017,-0.62893 -19.378688,-1.1472 -2.102527,-0.14702 -4.480485,-1.09746 -7.721037,-6.27743 -1.791592,-2.86344 -1.068796,-3.41678 0.191684,-3.99587 0.700984,-0.32212 4.626516,-1.67089 6.342636,-2.91195 6.399884,-4.62782 14.590236,-10.56258 25.833963,-10.02235 0.29835,0.0145 1.262512,0.0805 1.622469,-0.0355 2.736578,-0.88118 6.714456,-1.67566 7.957195,2.16395 0.07683,0.23741 0.247157,0.4331 0.469352,0.54642 2.926478,1.492 5.40587,3.55461 7.556028,5.88912 l 2.201494,-12.88984 z m 48.203641,5.62627 c -0.427878,0.0104 -0.908364,0.0776 -1.447571,0.21045 -1.696597,0.41837 -4.384061,1.40178 -4.98202,1.42782 -0.690925,0.0299 -1.37329,-0.25281 -2.499902,-0.37646 -6.037302,-0.66347 -13.324901,3.32019 -21.19581,8.72693 -1.194732,0.82084 -3.031212,1.56961 -4.722145,2.26968 -0.06575,0.0272 -0.101648,0.0977 -0.09091,0.16817 0.154753,1.00077 -0.210647,1.56101 -1.022689,2.37443 -0.06913,0.0691 -0.08129,0.17895 -0.02963,0.26183 2.925812,4.70125 4.663456,5.64365 7.017507,5.55313 4.848575,-0.18641 16.069932,-1.49046 19.916215,-0.34484 3.170405,0.94447 3.90026,7.30778 13.16747,20.35494 0.425991,0.59975 0.761007,1.16325 1.026636,1.69953 h 1.409037 l 5.468164,-32.01159 c -1.958617,-2.51049 -4.209088,-4.54571 -6.774435,-5.25177 -0.917264,-0.25255 -2.485054,1.95808 -2.863526,1.35369 -0.187806,-0.2996 1.280148,-1.92984 1.165963,-2.89612 -0.119149,-1.0085 -0.547237,-3.59999 -3.542349,-3.51963 z m -17.304658,7.38904 c 0.379401,-0.008 0.668545,0.0448 0.721318,0.21244 0.0399,0.1267 -0.423751,0.49632 -0.582981,0.78554 -0.779253,1.41439 -1.890551,2.72294 -3.568046,2.92281 -1.708683,0.20363 -2.642311,-1.02106 -2.957391,-1.11259 -0.243155,-0.0705 -0.259228,-0.31204 -0.127485,-0.36462 0.282458,-0.11301 0.675702,-0.34733 1.001938,-0.55432 0.85016,-0.53965 2.418163,-1.31149 3.556185,-1.58591 0.443237,-0.10679 1.324106,-0.28979 1.956446,-0.30335 z" />
      <path
         id="path2070-5-2-6-0-92"
         style="font-style:italic;font-variant:normal;font-weight:900;font-stretch:normal;font-size:10.5833px;line-height:0;font-family:Poppins;-inkscape-font-specification:'Poppins Heavy Italic';letter-spacing:0px;word-spacing:0px;fill:#000000;fill-opacity:1;stroke-width:0.505908"
         d="m 105.04955,147.86195 c -1.65938,0 -3.12927,0.37159 -4.4109,1.11359 -1.268147,0.72852 -2.260165,1.75387 -2.975177,3.07596 -0.08581,0.16009 -0.165785,0.32299 -0.241094,0.48912 l 0.776644,-4.4356 h -4.472156 l -1.618513,9.24765 c -0.08093,0.43173 -0.216252,0.73566 -0.405122,0.91104 -0.175385,0.17543 -0.398138,0.26283 -0.66796,0.26283 -0.553123,0 -0.830005,-0.31647 -0.830005,-0.95054 0,-0.17543 0.0208,-0.38461 0.06125,-0.62745 h -4.431629 c -0.08093,0.48568 -0.121534,0.93745 -0.121534,1.35568 0,1.40304 0.42473,2.469 1.274657,3.19752 0.863414,0.715 2.043869,1.07209 3.541364,1.07209 1.618899,0 2.954466,-0.43827 4.006754,-1.31518 1.05229,-0.89039 1.734097,-2.19263 2.044385,-3.90599 l 0.05535,-0.31815 c 0.057,0.9901 0.290752,1.88891 0.724279,2.68567 0.499164,0.90388 1.207043,1.60551 2.12442,2.10467 0.917377,0.49914 1.983327,0.74898 3.197497,0.74898 1.67288,0 3.15002,-0.37063 4.43165,-1.11261 0.42807,-0.24524 0.82053,-0.52682 1.18375,-0.83693 l -0.98019,1.80823 h 4.71522 l 1.09186,-2.16592 h 4.77648 l 0.32311,2.16592 h 4.73599 3.19256 l 1.27465,-7.20426 3.48109,7.20426 h 4.49191 l 1.27466,-7.20426 3.48109,7.20426 h 4.4929 5.0591 l 0.62645,-3.58188 h -5.05316 l 0.28852,-1.63631 0.0701,-0.38733 h 4.4524 l 0.60669,-3.37931 h -4.4524 l 0.30434,-1.78156 h 5.0591 l 0.62743,-3.56112 h -5.05909 -4.4929 l -1.29541,7.3258 -3.46034,-7.3258 h -4.49191 l -1.2954,7.3258 -3.46034,-7.3258 h -4.4929 l -1.89914,10.75946 -2.02166,-10.75946 h -5.18063 l -4.04925,7.46612 c 0.0944,-0.56956 0.14327,-1.16195 0.14327,-1.77959 0,-1.1737 -0.24982,-2.20632 -0.74898,-3.0967 -0.49916,-0.90389 -1.21431,-1.59825 -2.14517,-2.08391 -0.91739,-0.49916 -1.99686,-0.74899 -3.23802,-0.74899 z m 47.74417,0.24307 -1.41596,8.07379 c -0.0943,0.51265 -0.14225,1.01857 -0.14225,1.51773 0,1.56495 0.47886,2.77247 1.4367,3.6224 0.95788,0.83643 2.2403,1.2549 3.84571,1.2549 1.25465,0 2.40079,-0.2363 3.43959,-0.70846 1.05229,-0.47221 1.93608,-1.18735 2.65108,-2.14519 0.7285,-0.95786 1.21461,-2.13832 1.45745,-3.54138 l 1.41596,-8.07379 h -4.47216 l -1.41596,8.07379 c -0.12131,0.66106 -0.37124,1.18776 -0.74899,1.579 -0.37774,0.37773 -0.89092,0.56618 -1.53847,0.56618 -0.52613,0 -0.91027,-0.12815 -1.15311,-0.38438 -0.24284,-0.26982 -0.3646,-0.63415 -0.3646,-1.09283 0,-0.22937 0.0207,-0.45211 0.0612,-0.66797 l 1.41694,-8.07379 z m 13.24552,0 -2.52954,14.32751 h 4.4929 l 1.2549,-7.1845 0.95054,7.1845 h 3.84473 l 3.46031,-7.12325 -1.25389,7.12325 h 4.47217 l 2.52952,-14.32751 h -5.48396 l -4.59369,8.62022 -1.63927,-8.62022 z m -61.55588,3.90596 c 0.74201,0 1.3083,0.20826 1.69954,0.62646 0.40473,0.40473 0.60768,0.97829 0.60768,1.72031 0,0.71499 -0.1353,1.38328 -0.40512,2.00386 -0.26982,0.60709 -0.66749,1.09947 -1.19362,1.47722 -0.51266,0.36425 -1.11956,0.54642 -1.82108,0.54642 -0.76898,0 -1.35607,-0.20923 -1.7608,-0.62744 -0.39124,-0.41822 -0.58694,-0.99806 -0.58694,-1.74006 0,-0.71502 0.13433,-1.37602 0.40414,-1.98311 0.28331,-0.62059 0.68823,-1.11297 1.21438,-1.47722 0.52614,-0.36427 1.1403,-0.54644 1.84182,-0.54644 z m 12.34438,0.89031 0.58693,3.98598 h -2.58982 z" />
      <path
         id="path2086-3-5-4-3-5"
         style="font-style:italic;font-variant:normal;font-weight:900;font-stretch:normal;font-size:10.5833px;line-height:0.85;font-family:Poppins;-inkscape-font-specification:'Poppins Heavy Italic';letter-spacing:-0.809625px;word-spacing:0px;fill:#000000;fill-opacity:1;stroke-width:0.505908"
         d="m 114.34562,164.74371 c -1.44352,0 -2.75203,0.31021 -3.92573,0.93077 -1.17371,0.60711 -2.14494,1.46382 -2.91392,2.57009 -0.71267,1.02523 -1.19669,2.18535 -1.45745,3.47713 l -1.28454,-6.8367 h -5.179638 l -6.122287,11.28808 -0.956485,-2.44455 c 1.052288,-0.32377 1.909004,-0.84949 2.570055,-1.57801 0.661048,-0.742 1.079508,-1.59873 1.254897,-2.57005 0.05393,-0.26982 0.08004,-0.57377 0.08004,-0.91102 0,-1.14674 -0.397668,-2.06383 -1.193629,-2.75188 -0.79597,-0.68804 -1.962897,-1.03257 -3.500853,-1.03257 h -6.677606 l -2.529544,14.32751 h 4.491923 l 0.91103,-5.14013 1.801305,5.14013 h 4.937557 1.8774 l 1.09284,-2.16495 h 4.775505 l 0.3241,2.16495 h 4.73499 l -0.31915,-1.69955 c 0.3888,0.44525 0.86294,0.81621 1.42187,1.11262 0.8904,0.45868 1.96262,0.68771 3.21727,0.68771 1.24116,0 2.38828,-0.22903 3.44058,-0.68771 1.06577,-0.47219 1.98288,-1.13321 2.75186,-1.98312 0.76898,-0.84993 1.35608,-1.84096 1.7608,-2.97421 h -4.73598 c -0.2968,0.47218 -0.6674,0.84282 -1.1126,1.11261 -0.4452,0.25632 -0.92405,0.38437 -1.4367,0.38437 -0.63408,0 -1.12646,-0.20197 -1.47722,-0.6067 -0.33727,-0.40472 -0.50591,-0.95848 -0.50591,-1.66 0,-0.3103 0.0271,-0.59973 0.081,-0.86955 0.16188,-0.95784 0.51269,-1.72082 1.05233,-2.28743 0.53963,-0.56663 1.18713,-0.84979 1.94262,-0.84979 0.51265,0 0.94365,0.13541 1.29441,0.40512 0.35076,0.25632 0.59432,0.62066 0.72922,1.09284 h 4.73499 c 0.0135,-1.13321 -0.21554,-2.12524 -0.68772,-2.97517 -0.47218,-0.84991 -1.16026,-1.50368 -2.06415,-1.96238 -0.8904,-0.47218 -1.95635,-0.70846 -3.1975,-0.70846 z m 33.52437,0 c -1.4705,0 -2.80606,0.31021 -4.00674,0.93077 -1.2007,0.60711 -2.19174,1.46382 -2.97422,2.57009 -0.78245,1.10623 -1.29563,2.36787 -1.53847,3.78441 -0.0943,0.51266 -0.14121,1.03838 -0.14121,1.57802 0,1.14672 0.23631,2.15227 0.70847,3.01568 0.48568,0.84993 1.18728,1.51093 2.10467,1.98313 0.91736,0.47218 2.0239,0.70748 3.31903,0.70748 1.67286,0 3.12295,-0.3769 4.35063,-1.13236 1.22766,-0.76899 2.24575,-1.68708 3.05521,-2.75287 l 0.7895,-4.49191 h -7.30506 l -0.54642,3.17674 h 3.58189 c -0.78248,0.83643 -1.69331,1.25491 -2.7321,1.25491 -1.82127,0 -2.73212,-0.78281 -2.73212,-2.34774 0,-0.25634 0.0334,-0.58635 0.10078,-0.99108 0.16195,-0.95784 0.52622,-1.72082 1.09285,-2.28743 0.58009,-0.56663 1.30251,-0.84979 2.16592,-0.84979 0.45868,0 0.83655,0.0813 1.13335,0.24307 0.29688,0.14847 0.50511,0.3639 0.62646,0.64722 h 4.73598 c 0.0404,-1.02532 -0.16257,-1.91535 -0.60769,-2.67085 -0.4317,-0.75547 -1.09272,-1.33532 -1.98313,-1.74006 -0.87691,-0.41819 -1.94284,-0.62743 -3.1975,-0.62743 z m -26.31319,0.14121 -2.52955,14.32749 h 4.49291 l 2.52856,-14.32749 z m 5.04921,0 -2.52954,14.32749 h 4.4929 l 1.27465,-7.20425 3.48109,7.20425 h 4.49192 l 2.52955,-14.32749 h -4.49192 l -1.29541,7.32579 -3.46033,-7.32579 z m -37.743577,3.76475 h 1.781554 c 0.364248,0 0.640143,0.0873 0.829019,0.26283 0.188885,0.16195 0.283586,0.39094 0.283586,0.68773 0,0.10783 -0.0062,0.19534 -0.0197,0.26283 -0.08093,0.41823 -0.249577,0.72844 -0.505908,0.9308 -0.242833,0.18891 -0.580105,0.28359 -1.011821,0.28359 h -1.781548 z m 12.461967,1.0316 0.58693,3.98698 h -2.590807 z" />
      <path
         id="path1000-1-9"
         style="font-style:italic;font-variant:normal;font-weight:500;font-stretch:normal;font-size:10.7154px;line-height:1.25;font-family:Poppins;-inkscape-font-specification:'Poppins Medium Italic';letter-spacing:-0.926042px;word-spacing:0px;fill:#000000;fill-opacity:1;stroke-width:0.512222"
         d="m 88.603546,181.63435 c -1.32494,0 -2.601536,0.31432 -3.830871,0.94264 -1.215673,0.61468 -2.246877,1.47455 -3.093753,2.58094 -0.833212,1.10639 -1.372646,2.35659 -1.618509,3.74984 -0.08195,0.49176 -0.123524,0.95614 -0.123524,1.39324 0,1.16103 0.259573,2.18514 0.778632,3.073 0.519046,0.88785 1.243022,1.57834 2.171844,2.07007 0.928833,0.49174 1.980315,0.73711 3.155012,0.73711 1.242995,2e-5 2.418169,-0.27276 3.524564,-0.81912 1.120067,-0.56004 2.083327,-1.30427 2.889215,-2.23312 0.8059,-0.92881 1.378808,-1.94683 1.720293,-3.05324 l 0.328049,-1.82305 h -7.847517 l -0.327068,1.82305 h 5.347623 c -0.382451,1.22934 -1.038496,2.2058 -1.967324,2.92973 -0.928828,0.71027 -2.027975,1.06519 -3.298288,1.06519 -1.229328,0 -2.212878,-0.36201 -2.950472,-1.08594 -0.737593,-0.72394 -1.10668,-1.7004 -1.10668,-2.92972 0,-0.31417 0.03446,-0.69644 0.102747,-1.1472 0.177583,-1.02442 0.539556,-1.92586 1.085926,-2.70443 0.560037,-0.77858 1.242448,-1.37984 2.048335,-1.80329 0.819562,-0.42341 1.700694,-0.63536 2.643185,-0.63536 0.860527,0 1.584497,0.18455 2.17185,0.55334 0.587342,0.35513 1.011178,0.88848 1.270696,1.59875 h 2.806218 c -0.286846,-1.36592 -0.962163,-2.41838 -2.027585,-3.156 -1.051768,-0.75127 -2.336439,-1.12643 -3.852625,-1.12643 z m 22.145384,0.16403 -7.2349,13.53601 -2.17482,-5.17665 c 1.16104,-0.27322 2.07665,-0.79237 2.74595,-1.55726 0.68296,-0.76491 1.1058,-1.60449 1.26971,-2.51967 0.0546,-0.35515 0.082,-0.62182 0.082,-0.79938 0,-1.02444 -0.36908,-1.85791 -1.10668,-2.49989 -0.7376,-0.64199 -1.82257,-0.96243 -3.25678,-0.96243 h -4.9178 l -2.519668,14.23955 h 2.334891 l 1.003921,-5.6964 h 1.803284 l 2.253872,5.6964 h 2.78645 1.74696 l 1.5365,-2.90995 h 5.96221 l 0.51284,2.90995 h 1.6857 0.77269 8.61133 l 0.36856,-2.02857 h -6.61733 l 8.44137,-10.38793 0.32706,-1.82305 h -9.38401 l -0.36857,2.02759 h 6.59756 l -8.32674,10.27233 -2.23113,-12.32065 z m -12.585474,1.84378 h 2.581914 c 0.76491,0 1.33172,0.16423 1.70052,0.49209 0.38246,0.31417 0.57311,0.76437 0.57311,1.35172 0,0.19119 -0.0203,0.38994 -0.0613,0.59484 -0.12292,0.75124 -0.45044,1.34543 -0.98316,1.78253 -0.51904,0.43709 -1.21564,0.65511 -2.089837,0.65511 h -2.581905 z m 13.425364,0.98316 1.16793,6.70034 h -4.69152 z" />
    </g>
  </g>
</svg>
