<?xml version="1.0" encoding="UTF-8" standalone="no"?>
<svg
   xmlns:dc="http://purl.org/dc/elements/1.1/"
   xmlns:cc="http://creativecommons.org/ns#"
   xmlns:rdf="http://www.w3.org/1999/02/22-rdf-syntax-ns#"
   xmlns:svg="http://www.w3.org/2000/svg"
   xmlns="http://www.w3.org/2000/svg"
   xmlns:sodipodi="http://sodipodi.sourceforge.net/DTD/sodipodi-0.dtd"
   xmlns:inkscape="http://www.inkscape.org/namespaces/inkscape"
   width="120mm"
   height="57.100002mm"
   viewBox="0 0 120 57.100002"
   version="1.1"
   id="svg1000"
   inkscape:version="1.0.1 (3bc2e813f5, 2020-09-07)"
   sodipodi:docname="new_autotype_JR22.svg">
  <defs
     id="defs994">
    <rect
       x="93.832588"
       y="69.642113"
       width="21.072172"
       height="21.544643"
       id="rect2235" />
    <clipPath
       clipPathUnits="userSpaceOnUse"
       id="clipPath851-6-10-8-1-8-1-17-8-7-3-4-3">
      <path
         d="M 0,1080 H 1080 V 0 H 0 Z"
         id="path849-0-3-8-0-1-8-1-1-3-4-3-0" />
    </clipPath>
    <rect
       x="93.832588"
       y="69.642113"
       width="21.072172"
       height="21.544643"
       id="rect2235-8" />
    <rect
       x="93.832588"
       y="69.642113"
       width="21.072172"
       height="21.544643"
       id="rect2248" />
  </defs>
  <sodipodi:namedview
     id="base"
     pagecolor="#ffffff"
     bordercolor="#666666"
     borderopacity="1.0"
     inkscape:pageopacity="0.0"
     inkscape:pageshadow="2"
     inkscape:zoom="0.35"
     inkscape:cx="400"
     inkscape:cy="560"
     inkscape:document-units="mm"
     inkscape:current-layer="layer1"
     inkscape:document-rotation="0"
     showgrid="false"
     inkscape:object-nodes="false"
     fit-margin-top="0"
     fit-margin-left="0"
     fit-margin-right="0"
     fit-margin-bottom="0" />
  <metadata
     id="metadata997">
    <rdf:RDF>
      <cc:Work
         rdf:about="">
        <dc:format>image/svg+xml</dc:format>
        <dc:type
           rdf:resource="http://purl.org/dc/dcmitype/StillImage" />
        <dc:title></dc:title>
      </cc:Work>
    </rdf:RDF>
  </metadata>
  <g
     inkscape:label="Ebene 1"
     inkscape:groupmode="layer"
     id="layer1"
     transform="translate(-46.967231,-61.663569)">
    <path
       d="m 118.26995,112.32411 q 5.66049,-3.76096 9.07967,-6.68626 3.4191,-2.92517 3.83703,-5.24263 0.0762,-0.531841 0.0762,-0.683791 0,-1.2157 -1.06379,-1.2157 -0.75977,0 -1.21564,0.68386 -0.41789,0.64581 -0.75978,2.469311 h -8.16787 q 1.1017,-5.204661 4.40683,-7.712001 3.34309,-2.50739 7.63599,-2.50739 4.1789,0 6.07848,1.8236 1.89949,1.7855 1.89949,4.63477 0,0.53186 -0.15154,1.67157 -0.64587,3.609001 -3.6091,6.800261 -2.92521,3.19117 -6.99016,5.50859 h 8.69975 l -1.21566,6.8002 h -19.64093 z"
       style="font-style:italic;font-variant:normal;font-weight:900;font-stretch:normal;font-size:14.6745px;line-height:1.25;font-family:Poppins;-inkscape-font-specification:'Poppins Heavy Italic';letter-spacing:0px;word-spacing:0px;fill:#000000;fill-opacity:1;stroke-width:0.949746"
       id="path3439-5-9-0-8-3-3-3-3-34-2-5" />
    <path
       id="path2070-5-2-6-0-92"
       style="font-style:italic;font-variant:normal;font-weight:900;font-stretch:normal;font-size:10.5833px;line-height:0;font-family:Poppins;-inkscape-font-specification:'Poppins Heavy Italic';letter-spacing:0px;word-spacing:0px;fill:#000000;fill-opacity:1;stroke-width:0.942251"
       d="m 143.23894,69.924859 1.44647,-8.26129 h -8.32936 l -3.01447,17.22369 c -0.15074,0.80409 -0.40277,1.37017 -0.75454,1.69681 -0.32666,0.32673 -0.74152,0.48951 -1.24407,0.48951 -1.0302,0 -1.54587,-0.58942 -1.54587,-1.77036 0,-0.32675 0.0387,-0.71634 0.11405,-1.16862 h -8.25388 c -0.15075,0.90456 -0.22637,1.746 -0.22637,2.52494 0,2.61314 0.79104,4.59851 2.37404,5.95536 1.6081,1.33168 3.8067,1.99677 6.59578,1.99677 3.01519,0 5.50267,-0.81629 7.46256,-2.44953 1.95989,-1.65835 3.22974,-4.08376 3.80766,-7.27488 l 0.10308,-0.59255 c 1.46492,-8.36985 0,0 1.46492,-8.36985 z"
       sodipodi:nodetypes="cccccssccscscccc" />
    <path
       id="path2086-3-5-4-3-5"
       style="font-style:italic;font-variant:normal;font-weight:900;font-stretch:normal;font-size:10.5833px;line-height:0.85;font-family:Poppins;-inkscape-font-specification:'Poppins Heavy Italic';letter-spacing:-0.809625px;word-spacing:0px;fill:#000000;fill-opacity:1;stroke-width:0.942251"
       d="m 161.47559,82.687539 -1.78145,-4.55294 c 1.95988,-0.60302 3.5555,-1.58218 4.78671,-2.93905 1.23121,-1.38196 2.01057,-2.97762 2.33724,-4.78671 0.10049,-0.50253 0.14914,-1.06864 0.14914,-1.69677 0,-2.13579 -0.74064,-3.84387 -2.22312,-5.12536 -1.48248,-1.28148 -3.65588,-1.92314 -6.52033,-1.92314 h -12.437 l -4.71127,26.6849 h 8.36619 l 1.69679,-9.57346 3.35494,9.57346 h 9.19615 c -2.21399,-5.66093 0,0 -2.21399,-5.66093 z m -8.56678,-14.0123 h 3.31813 c 0.67844,0 1.19227,0.16251 1.54406,0.48951 0.35179,0.30164 0.52817,0.72814 0.52817,1.2809 0,0.20083 -0.012,0.36381 -0.0367,0.48951 -0.15074,0.77896 -0.46484,1.35672 -0.94225,1.73361 -0.45226,0.35187 -1.08045,0.52821 -1.8845,0.52821 h -3.31813 z"
       sodipodi:nodetypes="ccccsssccccccccscsccscc" />
    <path
       style="fill:#000000;fill-opacity:1;stroke:none;stroke-width:0.337294px;stroke-linecap:butt;stroke-linejoin:miter;stroke-opacity:1"
       d="m 121.91618,61.663589 -9.75408,57.099981 -65.194869,-2.6e-4 V 61.663569 Z"
       id="path2213" />
    <path
       d="m 138.81985,112.32409 q 5.66051,-3.76094 9.07967,-6.68622 3.41914,-2.92521 3.83699,-5.24263 0.0762,-0.531841 0.0762,-0.683831 0,-1.2157 -1.06373,-1.2157 -0.75983,0 -1.21568,0.68388 -0.41789,0.64583 -0.75978,2.469331 h -8.16788 q 1.10171,-5.204681 4.40684,-7.712021 3.34313,-2.50737 7.63603,-2.50737 4.17884,0 6.07843,1.8236 1.8995,1.78548 1.8995,4.63475 0,0.53186 -0.15154,1.67157 -0.64585,3.609021 -3.6091,6.800261 -2.92521,3.19117 -6.9902,5.50861 h 8.69979 l -1.21566,6.80018 h -19.64091 z"
       style="font-style:italic;font-variant:normal;font-weight:900;font-stretch:normal;font-size:14.6745px;line-height:1.25;font-family:Poppins;-inkscape-font-specification:'Poppins Heavy Italic';letter-spacing:0px;word-spacing:0px;fill:#000000;fill-opacity:1;stroke-width:0.949746"
       id="path3439-5-9-0-8-3-3-3-3-34-2" />
  </g>
</svg>
