<?xml version="1.0" encoding="utf-8"?>
<!-- Generator: Adobe Illustrator 26.3.1, SVG Export Plug-In . SVG Version: 6.00 Build 0)  -->
<svg version="1.1" id="Ebene_1" xmlns="http://www.w3.org/2000/svg" xmlns:xlink="http://www.w3.org/1999/xlink" x="0px" y="0px"
	 viewBox="0 0 283.5 87.7" style="enable-background:new 0 0 283.5 87.7;" xml:space="preserve">
<g>
	<g>
		<g>
			<path d="M119.3,24.8c-2.3,0-4.2-0.7-5.6-2s-2.1-3.2-2.1-5.6h4.4c0,1.1,0.3,2,0.8,2.7s1.3,1,2.4,1c1,0,1.8-0.3,2.3-0.9
				s0.7-1.5,0.7-2.5V0.4h4.4v17.1c0,2.4-0.7,4.2-2,5.4C123.3,24.2,121.5,24.8,119.3,24.8z"/>
			<path d="M140.2,24.8c-2.4,0-4.5-0.5-6.3-1.6s-3.2-2.5-4.2-4.4s-1.5-4-1.5-6.5c0-2.4,0.5-4.6,1.5-6.5s2.4-3.3,4.2-4.4
				s3.9-1.6,6.3-1.6c2.4,0,4.5,0.5,6.3,1.6s3.2,2.5,4.2,4.4s1.5,4,1.5,6.5c0,2.4-0.5,4.6-1.5,6.5s-2.4,3.3-4.2,4.4
				S142.6,24.8,140.2,24.8z M140.2,20.9c2.3,0,4.1-0.8,5.5-2.3s2-3.6,2-6.2s-0.7-4.7-2-6.2c-1.4-1.5-3.2-2.3-5.5-2.3
				s-4.1,0.8-5.5,2.3s-2.1,3.6-2.1,6.2s0.7,4.7,2.1,6.2S137.9,20.9,140.2,20.9z"/>
			<path d="M150.8,24.4l8.8-24h4.9l8.8,24h-4.7l-1.9-5.6h-9.4l-2,5.6H150.8z M158.6,15.4h7l-3.5-10L158.6,15.4z"/>
			<path d="M173.8,24.4v-24h4.4l11.3,16.9V0.4h4.4v24h-4.4L178.2,7.5v16.9H173.8z"/>
			<path d="M196.5,24.4v-24h4.4l11.3,16.9V0.4h4.4v24h-4.4L200.9,7.5v16.9H196.5z"/>
			<path d="M219.3,24.4v-24H235v3.5h-11.3v6.6H234V14h-10.3v6.9H235v3.5H219.3z"/>
			<path d="M245.8,24.8c-1.8,0-3.3-0.3-4.8-1c-1.4-0.7-2.5-1.8-3.4-3.2c-0.8-1.4-1.3-3.2-1.3-5.4V0.4h4.4v14.9
				c0,1.9,0.5,3.3,1.4,4.2c0.9,0.9,2.2,1.4,3.8,1.4s2.8-0.5,3.7-1.4s1.4-2.3,1.4-4.2V0.4h4.4v14.8c0,2.2-0.4,4-1.3,5.4
				c-0.9,1.4-2,2.5-3.5,3.2C249.1,24.5,247.5,24.8,245.8,24.8z"/>
			<path d="M257.8,24.4v-24h5.2l7.7,15.2l7.5-15.2h5.2v24H279V7.9L272.4,21h-3.5l-6.7-13.1v16.6h-4.4V24.4z"/>
		</g>
		<g>
			<path d="M113,55.9v-24h8.8c1.9,0,3.5,0.3,4.8,1c1.2,0.7,2.2,1.5,2.8,2.6s0.9,2.3,0.9,3.7c0,1.5-0.4,2.8-1.1,4
				c-0.8,1.2-2,2.1-3.6,2.6l5,10h-5l-4.5-9.5h-3.6v9.5H113V55.9z M117.4,43.2h4.2c1.5,0,2.5-0.4,3.2-1.1c0.7-0.7,1-1.6,1-2.8
				c0-1.1-0.3-2.1-1-2.7c-0.7-0.7-1.8-1-3.3-1h-4.1C117.4,35.6,117.4,43.2,117.4,43.2z"/>
			<path d="M130.7,55.9l8.8-24h4.9l8.8,24h-4.7l-1.9-5.6h-9.4l-2,5.6H130.7z M138.4,46.9h7l-3.5-10L138.4,46.9z"/>
			<path d="M163.5,56.3c-2.4,0-4.5-0.5-6.2-1.6c-1.7-1-3.1-2.5-4-4.4s-1.4-4-1.4-6.5s0.5-4.6,1.4-6.5s2.3-3.3,4-4.4
				c1.7-1.1,3.8-1.6,6.2-1.6c2.9,0,5.2,0.7,7.1,2.1c1.8,1.4,3,3.4,3.4,6h-4.8c-0.3-1.3-0.9-2.3-1.9-3.1c-1-0.7-2.3-1.1-3.9-1.1
				c-2.2,0-4,0.8-5.2,2.3c-1.3,1.5-1.9,3.6-1.9,6.2c0,2.6,0.6,4.7,1.9,6.2c1.3,1.5,3,2.2,5.2,2.2c1.6,0,2.9-0.3,3.9-1
				s1.6-1.7,1.9-2.9h4.8c-0.5,2.5-1.6,4.4-3.4,5.8C168.8,55.6,166.4,56.3,163.5,56.3z"/>
			<path d="M175.5,55.9v-24h4.4v24H175.5z"/>
			<path d="M182.6,55.9v-24h4.4l11.3,16.9V31.9h4.4v24h-4.4L187,39v16.9H182.6z"/>
			<path d="M215.6,56.3c-2.3,0-4.2-0.5-5.9-1.5s-3-2.5-3.9-4.3s-1.4-4-1.4-6.4c0-2.5,0.5-4.6,1.5-6.5s2.4-3.4,4.2-4.4
				c1.8-1.1,3.9-1.6,6.4-1.6c2.8,0,5.1,0.7,7,2c1.8,1.3,3,3.2,3.6,5.6H222c-0.4-1.1-1-2-2-2.6s-2.2-0.9-3.7-0.9
				c-2.4,0-4.3,0.8-5.6,2.3s-2,3.6-2,6.3s0.6,4.7,1.9,6.2c1.3,1.5,3,2.2,5.3,2.2c2.2,0,3.8-0.6,4.9-1.8c1.1-1.2,1.8-2.7,2-4.6h-6.1
				V43h10.5v13.2h-4l-0.3-3.2c-0.8,1.1-1.7,2-2.9,2.6C218.9,56,217.4,56.3,215.6,56.3z"/>
		</g>
		<g>
			<path d="M123.6,87.7c-2.2,0-4.2-0.5-5.9-1.6c-1.7-1-3-2.5-3.9-4.4s-1.4-4-1.4-6.5c0-2.4,0.5-4.6,1.4-6.5s2.3-3.3,4-4.4
				s3.8-1.6,6.2-1.6c2.7,0,4.9,0.7,6.7,2c1.8,1.3,3,3.1,3.5,5.4h-3.3c-0.3-1.4-1.1-2.6-2.3-3.4s-2.7-1.3-4.6-1.3
				c-1.8,0-3.3,0.4-4.6,1.2s-2.3,1.9-3,3.4s-1.1,3.2-1.1,5.2s0.4,3.8,1.1,5.2c0.7,1.5,1.7,2.6,3,3.4s2.7,1.2,4.4,1.2
				c2.6,0,4.5-0.7,5.8-2.2s2-3.6,2.2-6.2h-6.9v-2.3h9.9v12.8H132l-0.2-3.9c-0.9,1.4-1.9,2.5-3.2,3.2
				C127.3,87.3,125.6,87.7,123.6,87.7z"/>
			<path d="M137,87.3v-24h7.8c1.9,0,3.4,0.3,4.6,0.9c1.2,0.6,2.1,1.5,2.6,2.5c0.6,1.1,0.9,2.3,0.9,3.6c0,1.5-0.4,2.9-1.2,4.1
				s-2.1,2.1-3.8,2.6l5.2,10.3h-3.4l-4.9-9.9h-0.2h-4.7v9.9H137z M139.9,75.1h4.7c1.9,0,3.2-0.4,4-1.3s1.3-2,1.3-3.4
				s-0.4-2.5-1.3-3.4c-0.8-0.8-2.2-1.3-4.1-1.3h-4.6L139.9,75.1L139.9,75.1z"/>
			<path d="M153.5,87.3l8.8-24h3.1l8.8,24h-3.1l-2.2-6.2h-10.2l-2.2,6.2H153.5z M159.7,78.8h8.5l-4.3-11.9L159.7,78.8z"/>
			<path d="M174.6,87.3V85l11.8-19.2h-11.7v-2.5h15v2.3l-11.9,19.2h12v2.5H174.6z"/>
		</g>
	</g>
	<g>
		<path d="M27.7,23.9c0,0,7.8-5.5,14.3-5c0,0-0.6,5.2-6,7.5S27.7,23.9,27.7,23.9z"/>
		<path d="M80.9,7.1L80.9,7.1c-0.8-2.7-2.2-4.6-4.1-5.7c-3.2-1.8-7.3-0.9-11.1,0.3c-0.2,0-0.7,0.1-2.5,0c-21.3-1-36.4,9.9-48.6,18.8
			C12.3,22.2,7.5,24,4.9,25c-0.8,0.3-1.5,0.6-1.8,0.7c-0.9,0.4-2.5,1.2-3,2.8c-0.5,1.6,0.1,3.6,2,6.6c6.4,10.3,11.4,12,15.4,12.3
			c5.4,0.4,13.3,0.1,18.5-0.1c10.2-0.3,16.6-0.2,21.3,0.6c9.3,1.4,10.5,4.1,16.8,14.8c1.9,3.5,10,18.5,13.3,24.9l0,0
			c0.1,0,4.4,0,4.9,0l0,0c-3.9-7-13.4-25.2-14.3-26.9c-7-12-9.3-15.5-20-17c-4.8-0.9-11.7-0.9-21.8-0.6c-5.2,0.1-13,0.2-18.4,0.1
			C13,43,8.9,37.6,7,34.7l-0.6-1.3c1.9-2.2,1.8-4.1,1.6-5l2.5-0.9c1.8-0.8,5-2.2,6.8-3.5C28.9,15.6,42.1,6,60.5,6
			c0.8,0,1.7,0,2.5,0.1c0.8,0,1.4,0.1,1.9,0.1c0.9,0,1.4-0.1,2-0.2c1.8-0.6,4-1.2,5.7-1.2c0.9,0,1.6,0.2,2.2,0.5
			c0.9,0.5,1.6,1.5,2,3.1l0.4,2.6l0.3,2l1.9-1.7c6.2,0,26.5,22.2,29.1,27.1v-6.3C107.3,28.8,88.7,7.8,80.9,7.1z"/>
	</g>
</g>
</svg>
